{
	"asset":{
		"generator":"Khronos glTF Blender I/O v3.6.28",
		"version":"2.0"
	},
	"scene":0,
	"scenes":[
		{
			"name":"Scene",
			"nodes":[
				0
			]
		}
	],
	"nodes":[
		{
			"mesh":0,
			"name":"1.1_swing-p2"
		}
	],
	"materials":[
		{
			"doubleSided":true,
			"name":"Mat-stickG",
			"pbrMetallicRoughness":{
				"baseColorFactor":[
					0.30461549758911133,
					0.30461549758911133,
					0.30461549758911133,
					1
				],
				"metallicFactor":0,
				"roughnessFactor":0.5
			}
		},
		{
			"doubleSided":true,
			"name":"Mat-yellow",
			"pbrMetallicRoughness":{
				"baseColorFactor":[
					0.8000000715255737,
					0.38930395245552063,
					0.009505298919975758,
					1
				],
				"metallicFactor":0,
				"roughnessFactor":0.5
			}
		},
		{
			"doubleSided":true,
			"name":"Mat-stickBlack",
			"pbrMetallicRoughness":{
				"baseColorFactor":[
					0.00601379806175828,
					0.00601379806175828,
					0.00601379806175828,
					1
				],
				"metallicFactor":0,
				"roughnessFactor":0.5
			}
		}
	],
	"meshes":[
		{
			"name":"Cube.034",
			"primitives":[
				{
					"attributes":{
						"POSITION":0,
						"NORMAL":1,
						"TEXCOORD_0":2
					},
					"indices":3,
					"material":0
				},
				{
					"attributes":{
						"POSITION":4,
						"NORMAL":5,
						"TEXCOORD_0":6
					},
					"indices":7,
					"material":1
				},
				{
					"attributes":{
						"POSITION":8,
						"NORMAL":9,
						"TEXCOORD_0":10
					},
					"indices":11,
					"material":2
				}
			]
		}
	],
	"accessors":[
		{
			"bufferView":0,
			"componentType":5126,
			"count":4062,
			"max":[
				0.04201516509056091,
				0.009417258203029633,
				0.034925539046525955
			],
			"min":[
				-0.030287576839327812,
				0.004417244344949722,
				-0.03507446125149727
			],
			"type":"VEC3"
		},
		{
			"bufferView":1,
			"componentType":5126,
			"count":4062,
			"type":"VEC3"
		},
		{
			"bufferView":2,
			"componentType":5126,
			"count":4062,
			"type":"VEC2"
		},
		{
			"bufferView":3,
			"componentType":5123,
			"count":9624,
			"type":"SCALAR"
		},
		{
			"bufferView":4,
			"componentType":5126,
			"count":2436,
			"max":[
				0.049425579607486725,
				0.07361912727355957,
				0.049618225544691086
			],
			"min":[
				-0.03720856085419655,
				0.0033165402710437775,
				-0.049636222422122955
			],
			"type":"VEC3"
		},
		{
			"bufferView":5,
			"componentType":5126,
			"count":2436,
			"type":"VEC3"
		},
		{
			"bufferView":6,
			"componentType":5126,
			"count":2436,
			"type":"VEC2"
		},
		{
			"bufferView":7,
			"componentType":5123,
			"count":4404,
			"type":"SCALAR"
		},
		{
			"bufferView":8,
			"componentType":5126,
			"count":15336,
			"max":[
				0.050892919301986694,
				0.11973367631435394,
				0.04952108860015869
			],
			"min":[
				-0.038881100714206696,
				0.0016780607402324677,
				-0.04953908547759056
			],
			"type":"VEC3"
		},
		{
			"bufferView":9,
			"componentType":5126,
			"count":15336,
			"type":"VEC3"
		},
		{
			"bufferView":10,
			"componentType":5126,
			"count":15336,
			"type":"VEC2"
		},
		{
			"bufferView":11,
			"componentType":5123,
			"count":31440,
			"type":"SCALAR"
		}
	],
	"bufferViews":[
		{
			"buffer":0,
			"byteLength":48744,
			"byteOffset":0,
			"target":34962
		},
		{
			"buffer":0,
			"byteLength":48744,
			"byteOffset":48744,
			"target":34962
		},
		{
			"buffer":0,
			"byteLength":32496,
			"byteOffset":97488,
			"target":34962
		},
		{
			"buffer":0,
			"byteLength":19248,
			"byteOffset":129984,
			"target":34963
		},
		{
			"buffer":0,
			"byteLength":29232,
			"byteOffset":149232,
			"target":34962
		},
		{
			"buffer":0,
			"byteLength":29232,
			"byteOffset":178464,
			"target":34962
		},
		{
			"buffer":0,
			"byteLength":19488,
			"byteOffset":207696,
			"target":34962
		},
		{
			"buffer":0,
			"byteLength":8808,
			"byteOffset":227184,
			"target":34963
		},
		{
			"buffer":0,
			"byteLength":184032,
			"byteOffset":235992,
			"target":34962
		},
		{
			"buffer":0,
			"byteLength":184032,
			"byteOffset":420024,
			"target":34962
		},
		{
			"buffer":0,
			"byteLength":122688,
			"byteOffset":604056,
			"target":34962
		},
		{
			"buffer":0,
			"byteLength":62880,
			"byteOffset":726744,
			"target":34963
		}
	],
	"buffers":[
		{
			"byteLength":789624,
			"uri":"data:application/octet-stream;base64,"
		}
	]
}
