{
	"asset":{
		"generator":"Khronos glTF Blender I/O v3.6.28",
		"version":"2.0"
	},
	"scene":0,
	"scenes":[
		{
			"name":"Scene",
			"nodes":[
				0
			]
		}
	],
	"nodes":[
		{
			"mesh":0,
			"name":"1.1_swing-p1"
		}
	],
	"materials":[
		{
			"doubleSided":true,
			"name":"Mat_1.1-p1",
			"pbrMetallicRoughness":{
				"baseColorTexture":{
					"index":0
				},
				"metallicFactor":0,
				"roughnessFactor":0.5
			}
		}
	],
	"meshes":[
		{
			"name":"Cube.026",
			"primitives":[
				{
					"attributes":{
						"POSITION":0,
						"NORMAL":1,
						"TEXCOORD_0":2
					},
					"indices":3,
					"material":0
				}
			]
		}
	],
	"textures":[
		{
			"sampler":0,
			"source":0
		}
	],
	"images":[
		{
			"bufferView":4,
			"mimeType":"image/png",
			"name":"p1"
		}
	],
	"accessors":[
		{
			"bufferView":0,
			"componentType":5126,
			"count":16968,
			"max":[
				0.050892919301986694,
				0.11973367631435394,
				0.049618225544691086
			],
			"min":[
				-0.038881100714206696,
				0.0016780607402324677,
				-0.049636222422122955
			],
			"type":"VEC3"
		},
		{
			"bufferView":1,
			"componentType":5126,
			"count":16968,
			"type":"VEC3"
		},
		{
			"bufferView":2,
			"componentType":5126,
			"count":16968,
			"type":"VEC2"
		},
		{
			"bufferView":3,
			"componentType":5123,
			"count":34320,
			"type":"SCALAR"
		}
	],
	"bufferViews":[
		{
			"buffer":0,
			"byteLength":203616,
			"byteOffset":0,
			"target":34962
		},
		{
			"buffer":0,
			"byteLength":203616,
			"byteOffset":203616,
			"target":34962
		},
		{
			"buffer":0,
			"byteLength":135744,
			"byteOffset":407232,
			"target":34962
		},
		{
			"buffer":0,
			"byteLength":68640,
			"byteOffset":542976,
			"target":34963
		},
		{
			"buffer":0,
			"byteLength":1211280,
			"byteOffset":611616
		}
	],
	"samplers":[
		{
			"magFilter":9729,
			"minFilter":9987
		}
	],
	"buffers":[
		{
			"byteLength":1822896,
			"uri":"data:application/octet-stream;base64,"
		}
	]
}
