{
	"asset":{
		"generator":"Khronos glTF Blender I/O v3.6.28",
		"version":"2.0"
	},
	"scene":0,
	"scenes":[
		{
			"name":"Scene",
			"nodes":[
				0
			]
		}
	],
	"nodes":[
		{
			"mesh":0,
			"name":"1.1_swing-p3",
			"translation":[
				-0.007846159860491753,
				0.039230797439813614,
				0
			]
		}
	],
	"materials":[
		{
			"doubleSided":true,
			"name":"Mat_1.1-p3",
			"pbrMetallicRoughness":{
				"baseColorTexture":{
					"index":0
				},
				"metallicFactor":0,
				"roughnessFactor":0.5
			}
		}
	],
	"meshes":[
		{
			"name":"Cube.014",
			"primitives":[
				{
					"attributes":{
						"POSITION":0,
						"NORMAL":1,
						"TEXCOORD_0":2
					},
					"indices":3,
					"material":0
				}
			]
		}
	],
	"textures":[
		{
			"sampler":0,
			"source":0
		}
	],
	"images":[
		{
			"bufferView":4,
			"mimeType":"image/png",
			"name":"p3"
		}
	],
	"accessors":[
		{
			"bufferView":0,
			"componentType":5126,
			"count":11400,
			"max":[
				0.010000000707805157,
				0.07975530624389648,
				0.03044123202562332
			],
			"min":[
				-0.010293957777321339,
				-0.005043970420956612,
				-0.03039448708295822
			],
			"type":"VEC3"
		},
		{
			"bufferView":1,
			"componentType":5126,
			"count":11400,
			"type":"VEC3"
		},
		{
			"bufferView":2,
			"componentType":5126,
			"count":11400,
			"type":"VEC2"
		},
		{
			"bufferView":3,
			"componentType":5123,
			"count":23280,
			"type":"SCALAR"
		}
	],
	"bufferViews":[
		{
			"buffer":0,
			"byteLength":136800,
			"byteOffset":0,
			"target":34962
		},
		{
			"buffer":0,
			"byteLength":136800,
			"byteOffset":136800,
			"target":34962
		},
		{
			"buffer":0,
			"byteLength":91200,
			"byteOffset":273600,
			"target":34962
		},
		{
			"buffer":0,
			"byteLength":46560,
			"byteOffset":364800,
			"target":34963
		},
		{
			"buffer":0,
			"byteLength":1598436,
			"byteOffset":411360
		}
	],
	"samplers":[
		{
			"magFilter":9729,
			"minFilter":9987
		}
	],
	"buffers":[
		{
			"byteLength":2009796,
			"uri":"data:application/octet-stream;base64,"
		}
	]
}
